<?xml version="1.0" encoding="utf-8"?>
<!-- Generator: Adobe Illustrator 20.1.0, SVG Export Plug-In . SVG Version: 6.00 Build 0)  -->
<svg version="1.1" id="Layer_1" xmlns="http://www.w3.org/2000/svg" xmlns:xlink="http://www.w3.org/1999/xlink" x="0px" y="0px"
	 viewBox="0 0 128 65.3" style="enable-background:new 0 0 128 65.3;" xml:space="preserve">
<style type="text/css">
	.st0{fill:none;stroke:#000000;stroke-miterlimit:10;}
	.st1{fill:none;stroke:#B3B3B3;stroke-miterlimit:10;}
</style>
<path class="st0" d="M114.9,36.8c-0.3,0.9,2.4,0.1,2.4,0.8c-0.1,1.1-2.8,3.5-3.2,3.8c-2.8,1.9-8.9,4.8-13,6
	c-4.2,1.2-14.8,1.8-15.5,2.2s-2.2,3.8-3.7,4.7c-1.5,0.8-2.7,0.5-2.7,0.5s-6.2,3.7-7.3,2.2c-1.2-1.5,3.2-7.3,3.2-7.3s-6.2,0-9.5-0.7
	c-3.3-0.7-4-1.3-5.7-2.5c-1.7-1.2-4-1.5-5.7,0.7c-1.7,2.2-10.8,4.8-13.7,4.2c-2.8-0.7-5.3-2.5-6.2-4.5c-0.8-2-0.3-4.5-0.3-5.5
	s5.2-2,5.2-2S34,37,32.5,37s-3.5,2.7-8,5.3c-4.5,2.7-14.8,4-14.8,4S9.3,43.7,9,40s0.2-9.5,1-11.7s0.2-6.3,0.2-7.7
	c0-1.3,1.3-0.5,5.8,1.3s9.3,5.3,13.8,6.3s7.5-0.3,7.5-0.3S36,27.8,35,27.7c-1-0.2-1.7-3.5-1.7-5.2s0.3-3,5.2-5.8s8.7-1,9.5-1.3
	c0.8-0.3,4,1.3,5.3,1.8c1.3,0.5,2.5-0.7,3.7-1.2s3.8-0.2,5.2-0.3c1.3-0.2,2.7-1,3.7-1.2s3.2-0.5,3.5-1c0.3-0.5,2.3-0.3,3.5-1
	c1.2-0.7,3.8-2.3,4.8-1.8s5.5,9.8,5.5,9.8s5,0.5,12.8,3.2c6.8,2.3,17,9.5,19.5,11.3C115.8,35.2,114.9,36.8,114.9,36.8
	s-4.1,2.6-5.8,3.2c-1.7,0.5-2.9,0.7-3.7,0.6"/>
<path class="st1" d="M90.1,40.5c0,0-7.3-6.9-10.6-7.5s-7.3-0.8-8.4,1.4s1.5,5.1,2.8,6.8s4,3.8,4.6,4s5.6,0,6.8-0.6"/>
<path class="st1" d="M77,20c0,0-8.7-0.8-12.7-0.2c-4,0.7-11.3,2.2-15.2,4.3s-5,2.7-5,2.7"/>
</svg>
